# xmcd
#
# Track frame offsets:
#	150
#	16270
#	47965
#	64344
#	103451
#	118861
#	140322
#	167580
#	187042
#	211767
#
# Disc length: 3125
#
# Revision: 2
# Processed by: cddbd v1.5.1PL0 Copyright (c) Steve Scherf et al.
# Submitted via: FCDBAsst 2.0
# Normalized: r1:DSETVAR1
#
DISCID=930c330a
DTITLE=Various Artist - Giant 45
DYEAR=1900
DGENRE=
TTITLE0=Wilton Place Street Band (Norman Jay Intro) - Disco Lucy (I Love LucyTheme)
TTITLE1=Barry White - Playing Your Game Baby
TTITLE2=Mystic Diversions - Minimal Tango
TTITLE3=Low Budget Soul - Mystery Rose /Waves
TTITLE4=Marvin Gaye - Yesterday
TTITLE5=Love Unlimited - Walikn' In The Rain With The One I Love
TTITLE6=Ty - Music 2 Fly 2
TTITLE7=Izzi Dunn - Big Picture
TTITLE8=D'nell - Time 2 Say (Break Reform Remix)
TTITLE9=The Chi-Lites - Inner City Blues (Make Me Wanna Holler)
EXTD=
EXTT0=
EXTT1=
EXTT2=
EXTT3=
EXTT4=
EXTT5=
EXTT6=
EXTT7=
EXTT8=
EXTT9=
PLAYORDER=
